<mxfile host="app.diagrams.net" modified="2020-04-24T02:45:37.947Z" agent="5.0 (Windows NT 10.0; Win64; x64) AppleWebKit/537.36 (KHTML, like Gecko) Chrome/79.0.3945.88 Safari/537.36" etag="O9WQgS8ynTtIlHAPhoH8" version="13.0.1" type="github">
  <diagram id="C5RBs43oDa-KdzZeNtuy" name="Page-1">
    <mxGraphModel dx="1422" dy="794" grid="1" gridSize="10" guides="1" tooltips="1" connect="1" arrows="1" fold="1" page="1" pageScale="1" pageWidth="827" pageHeight="1169" math="0" shadow="0">
      <root>
        <mxCell id="WIyWlLk6GJQsqaUBKTNV-0" />
        <mxCell id="WIyWlLk6GJQsqaUBKTNV-1" parent="WIyWlLk6GJQsqaUBKTNV-0" />
        <mxCell id="XbOpYrBjh8NJVpjOJaIl-16" style="edgeStyle=orthogonalEdgeStyle;rounded=0;orthogonalLoop=1;jettySize=auto;html=1;entryX=0.5;entryY=0;entryDx=0;entryDy=0;" edge="1" parent="WIyWlLk6GJQsqaUBKTNV-1" source="WIyWlLk6GJQsqaUBKTNV-3" target="XbOpYrBjh8NJVpjOJaIl-6">
          <mxGeometry relative="1" as="geometry" />
        </mxCell>
        <mxCell id="WIyWlLk6GJQsqaUBKTNV-3" value="Auth（6100）" style="rounded=1;whiteSpace=wrap;html=1;fontSize=12;glass=0;strokeWidth=1;shadow=0;" parent="WIyWlLk6GJQsqaUBKTNV-1" vertex="1">
          <mxGeometry x="160" y="80" width="120" height="40" as="geometry" />
        </mxCell>
        <mxCell id="XbOpYrBjh8NJVpjOJaIl-2" style="edgeStyle=orthogonalEdgeStyle;rounded=0;orthogonalLoop=1;jettySize=auto;html=1;entryX=0.5;entryY=0;entryDx=0;entryDy=0;" edge="1" parent="WIyWlLk6GJQsqaUBKTNV-1" source="XbOpYrBjh8NJVpjOJaIl-0" target="XbOpYrBjh8NJVpjOJaIl-1">
          <mxGeometry relative="1" as="geometry" />
        </mxCell>
        <mxCell id="XbOpYrBjh8NJVpjOJaIl-0" value="&lt;span&gt;获取节目时长（media_detail&amp;nbsp; 的duration）&lt;/span&gt;" style="rounded=0;whiteSpace=wrap;html=1;" vertex="1" parent="WIyWlLk6GJQsqaUBKTNV-1">
          <mxGeometry x="160" y="385" width="120" height="60" as="geometry" />
        </mxCell>
        <mxCell id="XbOpYrBjh8NJVpjOJaIl-3" style="edgeStyle=orthogonalEdgeStyle;rounded=0;orthogonalLoop=1;jettySize=auto;html=1;entryX=0;entryY=0.5;entryDx=0;entryDy=0;" edge="1" parent="WIyWlLk6GJQsqaUBKTNV-1" source="XbOpYrBjh8NJVpjOJaIl-1" target="XbOpYrBjh8NJVpjOJaIl-4">
          <mxGeometry relative="1" as="geometry">
            <mxPoint x="370" y="525" as="targetPoint" />
          </mxGeometry>
        </mxCell>
        <mxCell id="XbOpYrBjh8NJVpjOJaIl-20" style="edgeStyle=orthogonalEdgeStyle;rounded=0;orthogonalLoop=1;jettySize=auto;html=1;exitX=0.5;exitY=1;exitDx=0;exitDy=0;" edge="1" parent="WIyWlLk6GJQsqaUBKTNV-1" source="XbOpYrBjh8NJVpjOJaIl-1">
          <mxGeometry relative="1" as="geometry">
            <mxPoint x="220" y="610" as="targetPoint" />
          </mxGeometry>
        </mxCell>
        <mxCell id="XbOpYrBjh8NJVpjOJaIl-1" value="判断duration是否为0" style="rhombus;whiteSpace=wrap;html=1;" vertex="1" parent="WIyWlLk6GJQsqaUBKTNV-1">
          <mxGeometry x="160" y="477" width="120" height="80" as="geometry" />
        </mxCell>
        <mxCell id="XbOpYrBjh8NJVpjOJaIl-4" value="返回试看时间为0" style="rounded=0;whiteSpace=wrap;html=1;" vertex="1" parent="WIyWlLk6GJQsqaUBKTNV-1">
          <mxGeometry x="370" y="487" width="120" height="60" as="geometry" />
        </mxCell>
        <mxCell id="XbOpYrBjh8NJVpjOJaIl-12" style="edgeStyle=orthogonalEdgeStyle;rounded=0;orthogonalLoop=1;jettySize=auto;html=1;exitX=0.5;exitY=1;exitDx=0;exitDy=0;entryX=0.5;entryY=0;entryDx=0;entryDy=0;" edge="1" parent="WIyWlLk6GJQsqaUBKTNV-1" source="XbOpYrBjh8NJVpjOJaIl-6" target="XbOpYrBjh8NJVpjOJaIl-8">
          <mxGeometry relative="1" as="geometry" />
        </mxCell>
        <mxCell id="XbOpYrBjh8NJVpjOJaIl-6" value="获取字典表时长范围" style="rounded=0;whiteSpace=wrap;html=1;" vertex="1" parent="WIyWlLk6GJQsqaUBKTNV-1">
          <mxGeometry x="160" y="170" width="120" height="60" as="geometry" />
        </mxCell>
        <mxCell id="XbOpYrBjh8NJVpjOJaIl-7" value="试看时长是0" style="rounded=0;whiteSpace=wrap;html=1;" vertex="1" parent="WIyWlLk6GJQsqaUBKTNV-1">
          <mxGeometry x="370" y="270" width="120" height="60" as="geometry" />
        </mxCell>
        <mxCell id="XbOpYrBjh8NJVpjOJaIl-14" style="edgeStyle=orthogonalEdgeStyle;rounded=0;orthogonalLoop=1;jettySize=auto;html=1;entryX=0;entryY=0.5;entryDx=0;entryDy=0;" edge="1" parent="WIyWlLk6GJQsqaUBKTNV-1" source="XbOpYrBjh8NJVpjOJaIl-8" target="XbOpYrBjh8NJVpjOJaIl-7">
          <mxGeometry relative="1" as="geometry" />
        </mxCell>
        <mxCell id="XbOpYrBjh8NJVpjOJaIl-17" style="edgeStyle=orthogonalEdgeStyle;rounded=0;orthogonalLoop=1;jettySize=auto;html=1;entryX=0.5;entryY=0;entryDx=0;entryDy=0;" edge="1" parent="WIyWlLk6GJQsqaUBKTNV-1" source="XbOpYrBjh8NJVpjOJaIl-8" target="XbOpYrBjh8NJVpjOJaIl-0">
          <mxGeometry relative="1" as="geometry" />
        </mxCell>
        <mxCell id="XbOpYrBjh8NJVpjOJaIl-8" value="判断是否为空" style="rhombus;whiteSpace=wrap;html=1;" vertex="1" parent="WIyWlLk6GJQsqaUBKTNV-1">
          <mxGeometry x="165" y="260" width="110" height="80" as="geometry" />
        </mxCell>
        <mxCell id="XbOpYrBjh8NJVpjOJaIl-9" value="是0" style="text;html=1;align=center;verticalAlign=middle;resizable=0;points=[];autosize=1;" vertex="1" parent="WIyWlLk6GJQsqaUBKTNV-1">
          <mxGeometry x="310" y="515" width="30" height="20" as="geometry" />
        </mxCell>
        <mxCell id="XbOpYrBjh8NJVpjOJaIl-15" value="是" style="text;html=1;align=center;verticalAlign=middle;resizable=0;points=[];autosize=1;" vertex="1" parent="WIyWlLk6GJQsqaUBKTNV-1">
          <mxGeometry x="314" y="278" width="30" height="20" as="geometry" />
        </mxCell>
        <mxCell id="XbOpYrBjh8NJVpjOJaIl-21" value="根据字典表和节目时长返回试看时长" style="rounded=0;whiteSpace=wrap;html=1;" vertex="1" parent="WIyWlLk6GJQsqaUBKTNV-1">
          <mxGeometry x="160" y="610" width="120" height="60" as="geometry" />
        </mxCell>
      </root>
    </mxGraphModel>
  </diagram>
</mxfile>
